<?xml version="1.0" encoding="utf-8"?>
<!DOCTYPE svg PUBLIC "-//W3C//DTD SVG 1.1//EN" "http://www.w3.org/Graphics/SVG/1.1/DTD/svg11.dtd">
<svg style="width:308px;height:308px;" version="1.1" id="图形" xmlns="http://www.w3.org/2000/svg" xmlns:xlink="http://www.w3.org/1999/xlink" x="0px" y="0px" width="1024px" height="1024px" viewBox="0 0 1024 1024" enable-background="new 0 0 1024 1024" xml:space="preserve">
  <path class="svgpath" data-index="path_0" fill="#000000" d="M165.914 154.66l708.004 0 0 79.746-708.004 0 0-79.746Z" />
<path class="svgpath" data-index="path_1" fill="#000000" d="M812.382 629.378 812.382 317.602 227.46 317.602l0 311.778L812.382 629.38 812.382 629.378zM312.266 397.318l416.148 0 0 152.428L312.266 549.746 312.266 397.318z" />
<path class="svgpath" data-index="path_2" fill="#000000" d="M685.864 809.094c25.452-38.946 49.472-84.128 71.722-135.422l-85.102-31.012c-22.126 60.766-47.894 116.352-77.226 166.434l-148.054 0c-24.554-64.938-52.246-120.446-83.318-166.434l-78.258 31.012c32.266 48.418 58.298 93.5 78.258 135.422L145.882 809.094 145.882 888 894 888l0-78.906L685.864 809.094z" />

</svg>
