<?xml version="1.0" encoding="utf-8"?>
<!DOCTYPE svg PUBLIC "-//W3C//DTD SVG 1.1//EN" "http://www.w3.org/Graphics/SVG/1.1/DTD/svg11.dtd">
<svg style="width:308px;height:308px;" version="1.1" id="图形" xmlns="http://www.w3.org/2000/svg" xmlns:xlink="http://www.w3.org/1999/xlink" x="0px" y="0px" width="1024px" height="1024px" viewBox="0 0 1024 1024" enable-background="new 0 0 1024 1024" xml:space="preserve">
  <path class="svgpath" data-index="path_0" fill="#000000" d="M268.16 128.576c-143.616 0-260.448 116.8-260.448 260.416 0 41.024 9.76 82.336 28.576 118.752 5.92 11.424 19.616 15.936 31.04 9.856 11.68-5.76 16.16-19.744 10.144-31.008-15.648-30.4-23.488-63.36-23.488-97.6 0-117.984 96.224-214.016 214.176-214.016 118.24 0 214.304 96.032 214.304 214.016s-96.032 214.016-214.304 214.016c-16.288 0-32.544-1.792-48.256-5.376-12.416-2.976-24.608 4.864-27.68 17.44-2.592 12.288 4.864 24.736 17.44 27.712 18.976 4.224 38.88 6.4 58.496 6.4 143.744 0 260.608-116.832 260.608-260.192 0-143.584-116.864-260.416-260.608-260.416z" />
<path class="svgpath" data-index="path_1" fill="#000000" d="M222.624 454.784c14.08 9.728 31.008 15.52 49.376 15.52 47.84 0 86.176-38.464 86.176-86.304 0-47.584-38.336-86.016-86.176-86.016-47.584 0-86.304 38.464-86.304 86.016 0 12.32 2.592 23.968 7.2 34.496-18.464 19.488-38.88 43.968-58.752 73.728-55.264 81.824-117.056 227.296-99.488 423.008 1.152 12.064 11.168 28 22.944 28l2.304 0c12.704 0 22.176-19.424 21.152-32.096-13.472-145.184 17.184-278.144 90.4-387.712 17.152-25.888 34.816-51.2 51.136-68.64z" />
<path class="svgpath" data-index="path_2" fill="#000000" d="M751.712 319.872c-19.072 0.768-38.08-3.36-55.616-11.552-60.672-28.864-86.464-101.312-57.344-161.696 28.608-60.768 101.056-86.432 161.568-57.568 60.672 28.448 86.272 101.152 57.472 161.568-3.84 8.32-8.736 16.416-14.368 23.456-4.512 5.664-3.552 13.984 2.08 18.464s14.112 3.456 18.464-2.176c6.88-8.736 12.544-18.368 17.664-28.48 35.136-73.344 3.68-161.856-69.856-196.704-73.632-34.976-161.984-3.584-196.864 70.048-35.04 73.6-3.584 161.856 70.016 196.832 21.056 10.016 44.512 14.848 67.616 14.336 7.392-0.384 13.184-6.4 12.832-13.696-0.128-7.296-6.304-12.928-13.632-12.8z" />
<path class="svgpath" data-index="path_3" fill="#000000" d="M966.304 419.904c-77.472-28.576-136.288-75.648-174.528-139.904-9.12-15.136-15.776-29.376-20.928-42.208 8.384-4.608 15.552-12.064 20.032-21.28 11.392-24.352 1.152-53.472-23.2-65.12-24.544-11.68-53.6-1.28-65.152 23.072-11.68 24.48-1.408 53.472 23.392 65.28 6.112 2.688 12.544 4.48 19.36 4.608 5.376 14.112 12.832 30.656 23.04 48.096 28.48 48.224 84.512 113.632 189.056 152.224 6.56 2.304 13.504-0.64 16.544-6.656 0-0.384 0.256-0.64 0.416-1.28 2.304-6.816-1.024-14.112-7.936-16.8z" />

</svg>
