<?xml version="1.0" encoding="utf-8"?>
<!DOCTYPE svg PUBLIC "-//W3C//DTD SVG 1.1//EN" "http://www.w3.org/Graphics/SVG/1.1/DTD/svg11.dtd">
<svg style="width:308px;height:308px;" version="1.1" id="图形" xmlns="http://www.w3.org/2000/svg" xmlns:xlink="http://www.w3.org/1999/xlink" x="0px" y="0px" width="1024px" height="1024px" viewBox="0 0 1024 1024" enable-background="new 0 0 1024 1024" xml:space="preserve">
  <path class="svgpath" data-index="path_0" fill="#000000" d="M753.145687 492.604254c-38.928614-7.53972-19.987217-28.485775-19.987217-28.485775s38.090527-62.836117-7.540743-108.49604c-56.582693-56.553017-194.044438 7.211239-194.044438 7.211239-52.514027 16.307408-38.567387-7.450692-31.148417-47.816029 0-47.575552-16.307408-128.096447-156.162666-80.519872C204.555327 282.313807 84.568583 449.816752 84.568583 449.816752 1.145591 561.155537 12.216741 647.182842 12.216741 647.182842c20.826328 189.943027 222.649939 242.097874 379.619994 254.455319 165.141154 12.926404 388.0592-56.942897 455.622992-200.506617C915.053194 557.326325 792.224728 500.414127 753.145687 492.604254zM404.074454 848.078315c-163.972539 7.659447-296.496831-74.565253-296.496831-183.960779 0-109.542882 132.524293-197.365066 296.496831-204.935486 164.032914-7.570419 296.827359 60.052724 296.827359 169.328523C700.901813 737.905076 568.107367 840.596923 404.074454 848.078315z" />
<path class="svgpath" data-index="path_1" fill="#000000" d="M371.339912 531.324114c-164.868955 19.299555-145.839553 173.757392-145.839553 173.757392s-1.675152 48.922223 44.224224 73.818239c96.468099 52.242851 195.809641 20.615527 246.020206-44.194548C565.953308 669.862377 536.510742 512.173962 371.339912 531.324114zM329.748654 748.109486c-30.760584 3.619434-55.595202-14.153348-55.595202-39.887452 0-25.673729 22.052249-52.511981 52.842509-55.713906 35.367509-3.382027 58.408271 16.995069 58.408271 42.75885C385.403209 720.910007 360.44784 744.607732 329.748654 748.109486zM426.96479 665.313781c-10.441816 7.78122-23.248494 6.702656-28.753881-2.632967-5.745864-9.125845-3.590781-23.7581 6.942109-31.417547 12.208043-9.097192 24.923646-6.463202 30.430056 2.631944C441.118138 643.230833 437.168176 657.264455 426.96479 665.313781z" />
<path class="svgpath" data-index="path_2" fill="#000000" d="M833.456804 425.758824c13.284561 0 24.595164-9.844206 26.482141-22.680559 0.237407-0.957815 0.358157-1.795902 0.358157-2.87242 20.136619-181.057659-148.383492-149.909242-148.383492-149.909242-14.959713 0-26.928303 12.119015-26.928303 27.228131 0 14.84101 11.968589 26.929326 26.928303 26.929326 121.06531-26.689872 94.343715 94.314039 94.343715 94.314039C806.257326 413.760558 818.434669 425.758824 833.456804 425.758824z" />
<path class="svgpath" data-index="path_3" fill="#000000" d="M813.827745 109.694331c-58.288544-13.644765-118.192889-1.88493-134.978181 1.345648-1.286296 0.119727-2.51324 1.316995-3.709485 1.556449-0.569982 0.119727-0.927115 0.718361-0.927115 0.718361-16.57756 4.697999-28.665877 20.017916-28.665877 38.121226 0 21.573341 17.473977 39.316447 39.316447 39.316447 0 0 21.185508-2.842745 35.57831-8.467859 14.272052-5.744841 134.918829-4.278443 194.881502 96.379071 32.674167 73.458035 14.363126 122.619712 12.088316 130.518612 0 0-7.779174 19.0908-7.779174 37.881772 0 21.694091 17.473977 35.307134 39.137369 35.307134 18.131963 0 33.333176-2.451842 37.791721-33.093722l0.239454 0C1061.161876 234.796584 918.075017 134.020366 813.827745 109.694331z" />

</svg>
