<?xml version="1.0" encoding="utf-8"?>
<!DOCTYPE svg PUBLIC "-//W3C//DTD SVG 1.1//EN" "http://www.w3.org/Graphics/SVG/1.1/DTD/svg11.dtd">
<svg style="width:308px;height:308px;" version="1.1" id="图形" xmlns="http://www.w3.org/2000/svg" xmlns:xlink="http://www.w3.org/1999/xlink" x="0px" y="0px" width="1024px" height="1024px" viewBox="0 0 1024 1024" enable-background="new 0 0 1024 1024" xml:space="preserve">
  <path class="svgpath" data-index="path_0" fill="#272636" d="M690.80485 341.8119c11.497868 0 22.873963 0.828878 34.156938 2.115174C694.269765 200.982454 541.48094 94.829785 367.076818 94.829785c-194.978716 0-354.697371 132.88859-354.697371 301.652248 0 97.41261 53.137221 177.409572 141.934616 239.469l-35.475979 106.703207 123.997082-62.182224c44.367487 8.768711 79.966263 17.783015 124.241652 17.783015 11.130502 0 22.168905-0.551562 33.115212-1.410116-6.928806-23.701818-10.946306-48.538483-10.946306-74.324776C389.245723 467.555765 522.318508 341.8119 690.80485 341.8119zM500.088204 245.62521c26.707268 0 44.398186 17.599843 44.398186 44.275389 0 26.584472-17.690918 44.398186-44.398186 44.398186-26.584472 0-53.260018-17.814738-53.260018-44.398186C446.828186 263.225053 473.504756 245.62521 500.088204 245.62521zM251.84947 334.299809c-26.584472 0-53.41249-17.814738-53.41249-44.398186 0-26.675546 26.829042-44.275389 53.41249-44.275389 26.583448 0 44.275389 17.599843 44.275389 44.275389C296.124859 316.485071 278.432918 334.299809 251.84947 334.299809z" />
<path class="svgpath" data-index="path_1" fill="#272636" d="M1014.533906 618.289792c0-141.841495-141.903917-257.437234-301.283858-257.437234-168.763658 0-301.682947 115.595738-301.682947 257.437234 0 142.025691 132.919289 257.376858 301.682947 257.376858 35.322483 0 70.951959-8.892531 106.427938-17.785062l97.28879 53.290717-26.674523-88.673575C961.488783 769.085216 1014.533906 698.256054 1014.533906 618.289792zM615.438349 573.891605c-17.661242 0-35.475979-17.569144-35.475979-35.505655 0-17.661242 17.814738-35.44528 35.475979-35.44528 26.830065 0 44.399209 17.784038 44.399209 35.44528C659.837558 556.322461 642.268414 573.891605 615.438349 573.891605zM810.539862 573.891605c-17.539468 0-35.230386-17.569144-35.230386-35.505655 0-17.661242 17.690918-35.44528 35.230386-35.44528 26.584472 0 44.399209 17.784038 44.399209 35.44528C854.939071 556.322461 837.124334 573.891605 810.539862 573.891605z" />

</svg>
