<?xml version="1.0" encoding="utf-8"?>
<!DOCTYPE svg PUBLIC "-//W3C//DTD SVG 1.1//EN" "http://www.w3.org/Graphics/SVG/1.1/DTD/svg11.dtd">
<svg style="width:308px;height:308px;" version="1.1" id="图形" xmlns="http://www.w3.org/2000/svg" xmlns:xlink="http://www.w3.org/1999/xlink" x="0px" y="0px" width="1024px" height="1024px" viewBox="0 0 1024 1024" enable-background="new 0 0 1024 1024" xml:space="preserve">
  <path class="svgpath" data-index="path_0" fill="#000000" d="M516.932267 634.03008C521.7792 637.11232 525.745493 643.720533 525.745493 648.567467 525.745493 653.85472 538.08128 683.37664 553.0624 715.10016 569.36448 749.02528 603.2896 796.17024 637.658453 832.740693 669.381973 866.228907 708.594347 902.35904 725.34016 912.489813 737.19808 919.432533 730.24512 915.002027 745.680213 926.562987L746.318507 927.716693C673.536 969.601707 597.169493 986.074453 513.908053 988.18048 441.61024 988.439893 370.8928 971.339093 305.57184 940.793173 296.78592 936.68352 288.525653 931.5328 280.00256 926.90432 284.675413 920.978773 292.02432 917.306027 298.390187 913.373867 314.692267 903.23968 353.908053 867.990187 386.071893 834.945707 422.642347 796.61056 453.044907 754.312533 470.227627 717.74208 484.768427 686.01856 499.309227 653.4144 502.391467 644.604587 505.47712 635.79136 512.085333 630.944427 516.932267 634.03008zM592.042667 33.6384C631.360853 41.6768 640.31744 42.059093 679.133867 56.24832 841.70752 115.677867 962.87744 263.24992 988.914347 434.45248 1003.431253 529.892693 988.975787 628.903253 947.06688 715.97056 926.047573 759.637333 905.3696 787.41504 875.014827 824.200533 861.426347 821.394773 869.300907 823.545173 851.790507 816.438613 835.488427 808.50944 796.276053 778.10688 765.433173 749.02528 734.149973 719.947093 694.05696 674.123093 675.990187 647.686827 657.926827 620.81024 636.337493 580.713813 627.524267 559.12448 618.71104 537.094827 606.375253 497.442133 599.76704 471.005867 591.834453 437.957973 587.86816 359.970133 587.86816 227.7888zM429.540693 36.2496C432.500053 98.816 432.810667 128.740693 432.97792 150.71232 433.421653 209.24416 433.455787 267.813547 432.91648 326.341973 432.523947 369.216853 433.55136 414.80192 426.799787 457.321813 423.072427 480.805547 422.178133 482.07872 416.474453 501.845333 407.220907 530.926933 390.478507 572.78464 379.904 594.373973 368.889173 616.403627 342.012587 658.261333 319.97952 687.783253 297.949867 716.86144 256.09216 758.278827 226.573653 779.86816 197.051733 801.457493 165.328213 821.725867 155.634347 825.25184L154.036907 825.695573C124.566187 792.763733 99.92192 755.800747 80.749227 715.97056-3.720533 540.491093 27.108693 328.772267 158.19776 184.5248 210.21696 127.286613 313.088 68.993707 348.678827 56.24832 384.269653 43.502933 422.99392 31.88736 429.540693 36.2496z" />

</svg>
