<?xml version="1.0" encoding="utf-8"?>
<!DOCTYPE svg PUBLIC "-//W3C//DTD SVG 1.1//EN" "http://www.w3.org/Graphics/SVG/1.1/DTD/svg11.dtd">
<svg style="width:308px;height:308px;" version="1.1" id="图形" xmlns="http://www.w3.org/2000/svg" xmlns:xlink="http://www.w3.org/1999/xlink" x="0px" y="0px" width="1024px" height="1024px" viewBox="0 0 1024 1024" enable-background="new 0 0 1024 1024" xml:space="preserve">
  <path class="svgpath" data-index="path_0" fill="#000000" d="M521.678 28.512c-267.808 0-484.979 217.09-484.979 484.979s217.09 484.979 484.979 484.979c267.808 0 484.979-217.09 484.979-484.979s-217.09-484.979-484.979-484.979zM788.614 836.947c-133.951 59.778-304.591 12.422-378.727-13.722-58.202-18.066-109.54-51.658-149.458-95.745-0.996-0.582-2.115-0.914-3.116-1.468 0.621 0.005 1.263 0.004 1.98 0.208-53.275-59.477-85.708-137.977-85.708-224.028 0-185.723 150.517-336.196 336.18-336.196 185.682 0 336.18 150.517 336.18 336.196 0 119.473-62.356 224.283-156.277 283.881 8.39 10.521 33.034 32.927 99.031 50.907zM675.788 552.381l-0.002-0.208c4.893-16.043 7.553-33.034 7.553-50.571 0-95.745-77.574-173.347-173.323-173.347s-173.347 77.574-173.347 173.347c0 62.412 33.121 116.977 82.604 147.477l-1.566 0.327c-26.512 47.065-76.892 78.901-134.765 78.901-8.057 0-15.883-0.876-23.632-2.113 0.372 0.397 0.857 0.857 1.209 1.263 40.494 21.276 86.543 33.498 135.498 33.498 132.278 0 243.917-87.98 279.812-208.605z" />

</svg>
