<?xml version="1.0" encoding="utf-8"?>
<!DOCTYPE svg PUBLIC "-//W3C//DTD SVG 1.1//EN" "http://www.w3.org/Graphics/SVG/1.1/DTD/svg11.dtd">
<svg style="width:308px;height:308px;" version="1.1" id="图形" xmlns="http://www.w3.org/2000/svg" xmlns:xlink="http://www.w3.org/1999/xlink" x="0px" y="0px" width="1024px" height="1024px" viewBox="0 0 1024 1024" enable-background="new 0 0 1024 1024" xml:space="preserve">
  <path class="svgpath" data-index="path_0" fill="#000000" d="M997.866 371.439c0-10.62 0-13.789-10.62-13.789h-286.747l-42.508-75.803-116.795-224.586c-10.65 0-10.65 0-21.268 0l-106.178 224.586-42.503 75.803h-349.801v16.988l68.69 42.503 172.441 148.766-35.948 340.033c0 10.62 3.277 10.62 24.511 10.62l277.787-170.017 276.927 170.017c10.649 0 11.045 0 21.665-10.62l-52.891-340.033 159.399-139.756 63.84-54.714zM296.922 689.474l307.985-250.548-286.75-48.675h435.433l-265.514 239.93 276.129 59.295h-467.284z" />

</svg>
