<?xml version="1.0" encoding="utf-8"?>
<!DOCTYPE svg PUBLIC "-//W3C//DTD SVG 1.1//EN" "http://www.w3.org/Graphics/SVG/1.1/DTD/svg11.dtd">
<svg style="width:308px;height:308px;" version="1.1" id="图形" xmlns="http://www.w3.org/2000/svg" xmlns:xlink="http://www.w3.org/1999/xlink" x="0px" y="0px" width="1024px" height="1024px" viewBox="0 0 1024 1024" enable-background="new 0 0 1024 1024" xml:space="preserve">
  <path class="svgpath" data-index="path_0" fill="#000000" d="M586.51762 321.345528c0-44.88134 0-84.289346 0-129.049056 0-18.122817 10.946668-29.312745 29.312745-29.312745 17.879558 0 23.109633 0 29.312745 0 16.055113 0 27.001782 9.730372 27.001782 25.907115 0 9.608742 2.675852 17.27141 2.310963 26.880152-0.12163 4.257038 1.946074 5.838223 5.838223 5.838223 58.017342-0.12163 112.142535 0 170.159876 0 16.906521 0 23.474522 12.406224 23.474522 29.312745 0 12.406224 0 22.866374 0 35.150968 0 15.568595-8.027557 23.474522-23.474522 23.474522-58.017342 0-112.142535 0.243259-170.159876 0-5.108445 0-11.798076 6.81126-11.676446 11.676446 0.243259 48.773489 3.648889 92.681791 3.40563 141.45528 0 4.621927 3.284 5.230075 8.270816 5.230075 52.665637-0.243259 105.696163 0 158.361801 0 16.784891 0 23.474522 6.689631 23.474522 23.474522 0 113.480461-0.243259 232.677515 0 346.157976 0 15.203706-7.905927 23.474522-23.474522 23.474522-89.51942-0.364889-180.376767 0-269.896187 0-16.906521 0-29.312745-12.406224-29.312745-29.312745 0-113.72372 0-226.596033 0-340.319753 0-15.933484 11.068298-22.744744 26.880152-22.744744 4.500297 0 9.122224-0.243259 13.62252 0.12163 3.52726 0.243259 6.324742-3.040741 6.324742-6.689631-0.12163-25.298967 0-50.962822 0-76.261789C586.51762 364.159164 586.51762 342.995605 586.51762 321.345528zM773.948906 663.854615c0-30.650671 0.364889-59.598527 0.364889-90.249198 0-11.068298-6.446371-17.636299-17.636299-17.636299-37.705191 0-73.707566 0-111.534387 0-9.973631 0-17.636299 7.541038-17.636299 17.636299 0 61.787861 0 120.170091 0 181.836323 0 10.946668 7.176149 17.14978 18.001188 17.14978 37.218672 0 74.437344 0 111.534387 0 11.919705 0 16.784891-4.986816 16.784891-17.028151C773.948906 725.034327 773.948906 694.505286 773.948906 663.854615z" />
<path class="svgpath" data-index="path_1" fill="#000000" d="M152.299779 203.972918c0-5.108445-2.189334-12.649483 0.364889-17.27141 4.500297-7.905927 11.311557-12.041335 20.55541-12.041335 21.163559 0 42.327117 0 63.490676 0 80.032308 0 160.064616 0 240.218553 0 17.879558 0 26.636893 8.635705 26.636893 26.272004 0 149.239577 0.12163 298.479154 0.12163 447.718731 0 17.14978-8.757335 25.785485-26.028745 25.785485-11.798076 0-23.717781 0-35.515857 0-17.14978 0-26.028745-8.757335-26.028745-25.785485 0-99.249792 0-198.621214 0-297.871006 0-24.2043 0-48.4086 0-72.734529 0-10.825039-4.865186-15.811854-15.568595-15.811854-49.381637 0-98.884903 0-148.26654 0-10.703409 0-17.757928 7.419408-17.757928 18.122817 0 123.575722 0 240.218553 0 363.794275 0 17.39304-6.203112 30.164153-23.596152 30.164153-11.798076 0-23.231263-1.702815-35.029338-0.851408-17.27141 1.216296-23.474522-10.095261-23.474522-23.474522C152.299779 649.867205 152.421409 278.167003 152.299779 203.972918z" />
<path class="svgpath" data-index="path_2" fill="#000000" d="M326.716693 768.212852c-4.378667 4.986816-8.635705 10.095261-13.014372 14.838817-29.069486 31.258819-64.585343 51.57097-106.061052 61.90949-12.406224 3.040741-24.934078 4.865186-37.705191 5.716593-8.878964 0.608148-19.339114-8.027557-19.460744-17.14978-0.364889-17.636299-0.973037-35.394227 0-53.030526 0.729778-12.406224 6.689631-19.339114 21.893337-23.231263 48.28697-12.406224 78.451122-37.218672 97.303718-83.924457 5.838223-17.636299 11.798076-35.759116 11.676446-52.787267-0.12163-103.26357 0-207.621808 0-311.007008 0-11.311557 4.621927-12.527854 16.055113-12.527854 19.704003 0 39.408006 0 59.112009 0 12.649483 0 14.717187 1.946074 14.717187 14.352298 0 103.628459 0.243259 207.378549-0.12163 311.007008-0.12163 28.582967 8.392446 54.125193 24.325929 77.356456 20.312151 29.556004 48.16534 48.651859 82.951419 57.652453 2.797482 0.729778 5.594964 1.459556 8.392446 2.432593 9.973631 3.284 16.784891 12.527854 16.906521 23.109633 0.12163 15.446965 0.12163 31.01556 0 46.462525-0.12163 13.86578-9.730372 22.866374-23.596152 21.650077-61.058083-5.230075-111.047868-31.623708-149.969355-78.816011C329.027656 771.010334 328.054619 769.672408 326.716693 768.212852z" />

</svg>
