<?xml version="1.0" encoding="utf-8"?>
<!DOCTYPE svg PUBLIC "-//W3C//DTD SVG 1.1//EN" "http://www.w3.org/Graphics/SVG/1.1/DTD/svg11.dtd">
<svg style="width:308px;height:308px;" version="1.1" id="图形" xmlns="http://www.w3.org/2000/svg" xmlns:xlink="http://www.w3.org/1999/xlink" x="0px" y="0px" width="1024px" height="1024px" viewBox="0 0 1024 1024" enable-background="new 0 0 1024 1024" xml:space="preserve">
  <path class="svgpath" data-index="path_0" fill="#000000" d="M626.792954 232.541217l0-0.459464-0.496304 0L626.792954 232.541217zM511.726266 64.067154c-17.10354 0-33.903158 1.032516-50.430576 2.976798-40.505529 4.582365-79.33079 14.70184-115.828029 29.39754 0 0 300.94719 297.819966 308.960701 308.890093L654.428362 87.73725c-8.969279-3.052522-18.131963-5.802146-27.370371-8.362458C590.296739 69.486584 551.621904 64.067154 511.726266 64.067154L511.726266 64.067154zM626.792954 232.541217l-0.496304-0.459464 0.496304 0L626.792954 232.541217 626.792954 232.541217zM788.317745 393.953444l0.265036-0.344854-0.265036-0.340761L788.317745 393.953444zM826.07365 193.449897c-12.063757-12.06478-24.701588-23.215748-37.755905-33.556257-31.914874-25.351388-66.503647-45.735647-102.659101-61.08524 0 0 2.214435 423.265026 0 436.781878l224.636177-224.593198c-4.202719-8.477069-8.742105-16.916275-13.517875-25.198915C877.726054 252.812913 854.288249 221.621517 826.07365 193.449897L826.07365 193.449897zM788.317745 393.953444l0-0.685615 0.302899 0.340761L788.317745 393.953444 788.317745 393.953444zM789.080108 627.52206l0-0.459464-0.459464 0.459464L789.080108 627.52206zM924.682505 346.234629c0 0-297.738102 300.910351-308.884976 308.923862l317.631174 0c3.052522-8.969279 5.803169-18.132986 8.321526-27.371394 9.924024-36.842093 15.34857-75.399247 15.34857-115.331725 0-17.067724-1.069355-33.903158-3.019777-50.431599C949.498704 421.518243 939.421184 382.692982 924.682505 346.234629L924.682505 346.234629zM789.080108 627.52206l-0.459464 0 0.459464-0.459464L789.080108 627.52206 789.080108 627.52206zM625.377722 791.224446l-0.648776 0 0.308015 0.338714L625.377722 791.224446zM482.977501 688.60116 707.609585 913.196405c8.552793-4.237511 16.916275-8.704243 25.236777-13.512758 32.985252-18.97619 64.138786-42.451858 92.390223-70.703295 12.021801-12.026918 23.134907-24.702612 33.518395-37.755905 25.308409-31.921014 45.736671-66.467831 61.081147-102.662171C919.83715 688.562275 496.534262 690.779779 482.977501 688.60116L482.977501 688.60116zM625.377722 791.224446l-0.340761 0.338714-0.308015-0.338714L625.377722 791.224446 625.377722 791.224446zM395.365094 791.33701l0.459464 0-0.459464-0.457418L395.365094 791.33701zM367.723547 618.051361l0 317.630151c9.012258 3.053546 18.169825 5.841032 27.371394 8.326643 36.804231 9.925047 75.403341 15.344476 115.336842 15.344476 17.023722 0 33.860179-1.070378 50.353828-2.977821 40.505529-4.620227 79.33079-14.694677 115.827005-29.435403C676.650479 926.939407 375.740128 629.200282 367.723547 618.051361L367.723547 618.051361zM395.365094 791.33701l0-0.49528 0.496304 0.49528L395.365094 791.33701 395.365094 791.33701zM233.493403 628.013247l0-0.686638-0.340761 0.345877L233.493403 628.013247zM336.110549 485.576187 111.555214 710.169385c4.202719 8.591679 8.747221 16.991999 13.516852 25.235754 18.97619 33.062 42.451858 64.213487 70.703295 92.428086 12.026918 12.06478 24.702612 23.172769 37.755905 33.519418 31.952736 25.38925 66.428945 45.736671 102.69901 61.080124C336.229253 922.43379 333.93807 499.130901 336.110549 485.576187L336.110549 485.576187zM233.493403 628.013247l-0.340761-0.340761 0.340761-0.345877L233.493403 628.013247 233.493403 628.013247zM233.033939 396.093177l0 0.378623 0.422625-0.378623L233.033939 396.093177zM80.326978 395.823024c-9.887184 36.804231-15.306614 75.402317-15.306614 115.335818 0 17.024745 1.069355 33.898041 3.01466 50.392714 4.583388 40.542368 14.622022 79.369675 29.435403 115.789143 0 0 297.705356-300.910351 308.85223-308.889069L88.651574 368.45163C85.598029 377.383046 82.848405 386.584616 80.326978 395.823024L80.326978 395.823024zM233.033939 396.093177l0.422625 0-0.422625 0.378623L233.033939 396.093177 233.033939 396.093177zM394.867768 233.610572l-0.308015 0.344854 0.690732 0L394.867768 233.610572zM287.133068 125.45427c-33.060977 19.013029-64.213487 42.493813-92.390223 70.665433-12.139481 12.102642-23.210631 24.778336-33.556257 37.755905-25.351388 31.91999-45.735647 66.50467-61.119009 102.735849 0 0 423.378613-2.25332 436.895465-0.075725L312.365752 111.942535C303.817052 116.215862 295.377846 120.68464 287.133068 125.45427L287.133068 125.45427zM394.867768 233.610572l0.38374 0.344854-0.690732 0L394.867768 233.610572 394.867768 233.610572zM394.867768 233.610572" />

</svg>
